<svg width="28" height="28" viewBox="0 0 28 28" fill="none" xmlns="http://www.w3.org/2000/svg">
<path fill-rule="evenodd" clip-rule="evenodd" d="M13.9998 25.3333C20.2591 25.3333 25.3332 20.2592 25.3332 14C25.3332 7.74073 20.2591 2.66663 13.9998 2.66663C7.74061 2.66663 2.6665 7.74073 2.6665 14C2.6665 20.2592 7.74061 25.3333 13.9998 25.3333ZM13.9998 27.3333C21.3636 27.3333 27.3332 21.3638 27.3332 14C27.3332 6.63616 21.3636 0.666626 13.9998 0.666626C6.63604 0.666626 0.666504 6.63616 0.666504 14C0.666504 21.3638 6.63604 27.3333 13.9998 27.3333Z" fill="#1F2837"/>
<path d="M12.4169 17.1515C12.4169 16.6666 12.4879 16.2405 12.63 15.8732C12.772 15.4912 12.9496 15.146 13.1627 14.8374C13.39 14.5289 13.6386 14.235 13.9085 13.9559C14.1926 13.6767 14.4625 13.3976 14.7183 13.1184C15.0592 12.7805 15.3717 12.3985 15.6558 11.9724C15.94 11.5316 16.082 10.9733 16.082 10.2975C16.1104 9.50409 15.9045 8.86497 15.4641 8.38012C15.0379 7.89528 14.3986 7.65285 13.5463 7.65285C12.6229 7.65285 11.9197 7.86589 11.4367 8.29197C10.9679 8.71805 10.6127 9.40124 10.3712 10.3416L8.6665 10.0551C8.76595 9.52613 8.92931 9.01924 9.15661 8.5344C9.38391 8.04955 9.68933 7.62347 10.0729 7.25616C10.4565 6.87416 10.9324 6.57296 11.5006 6.35258C12.083 6.1175 12.772 5.99996 13.5676 5.99996C14.2921 5.99996 14.9242 6.10281 15.4641 6.3085C16.0181 6.4995 16.4798 6.77865 16.8492 7.14596C17.2327 7.51327 17.5168 7.9467 17.7015 8.44624C17.9004 8.94578 17.9998 9.4894 17.9998 10.0771C17.9998 10.9586 17.8294 11.6859 17.4884 12.2589C17.1617 12.8319 16.771 13.3461 16.3164 13.8016C16.0607 14.0661 15.805 14.3232 15.5493 14.573C15.3078 14.8227 15.0876 15.0798 14.8887 15.3443C14.704 15.6088 14.5478 15.8953 14.4199 16.2038C14.3063 16.4977 14.2495 16.8282 14.2495 17.1956V17.4821H12.4169V17.1515ZM12.289 19.4435H14.356V22H12.289V19.4435Z" fill="#1F2837"/>
</svg>
